<svg version="1.2" xmlns="http://www.w3.org/2000/svg" viewBox="0 0 320 60" width="320" height="60">
	<title>amnex-svg</title>
	<style>
		.s0 { fill: #ffffff } 
	</style>
	<path id="Path_4828" fill-rule="evenodd" class="s0" d="m306 15.3l-9.9 13.4 10 13.5q0.3 0.4 0.6 0.9 0.2 0.6 0.4 1.1 0.2 0.5 0.3 1.1 0.2 0.6 0.2 1.1 0.1 0.5 0.1 1 0 0.5 0.1 1 0 0.5 0 1 0 0.5 0 1v2.4h-4.5v-2.4q0-0.5 0-0.9 0-0.4 0-0.9 0-0.4-0.1-0.8 0-0.5 0-0.9-0.1-0.3-0.1-0.6-0.1-0.3-0.2-0.5-0.1-0.3-0.2-0.6-0.1-0.2-0.3-0.5l-9.6-12.9v-6.2l9.6-13q0.2-0.2 0.3-0.5 0.1-0.2 0.2-0.5 0.1-0.2 0.2-0.5 0-0.3 0.1-0.6 0-0.4 0-0.9 0.1-0.4 0.1-0.8 0-0.5 0-0.9 0-0.5 0-0.9v-2.4h4.5v2.4q0 0.5 0 1 0 0.5 0 1-0.1 0.5-0.1 1 0 0.5-0.1 1 0 0.5-0.2 1.1-0.1 0.6-0.3 1.1-0.2 0.5-0.4 1-0.3 0.5-0.6 1zm-22.7 16.5l-9.6 13q-0.2 0.2-0.3 0.5-0.1 0.2-0.2 0.5-0.1 0.3-0.2 0.5 0 0.3-0.1 0.6 0 0.4 0 0.9-0.1 0.4-0.1 0.9 0 0.4 0 0.8 0 0.5 0 0.9v2.4h-4.5v-2.4q0-0.5 0-1 0-0.5 0-1 0-0.5 0.1-1 0-0.5 0.1-1 0-0.5 0.2-1.1 0.1-0.5 0.3-1.1 0.2-0.5 0.4-1 0.3-0.5 0.6-1l0.1-0.1 9.9-13.4-10-13.5q-0.3-0.4-0.6-0.9-0.2-0.5-0.4-1.1-0.2-0.5-0.3-1.1-0.2-0.5-0.2-1.1-0.1-0.5-0.1-1-0.1-0.5-0.1-1 0-0.5 0-1 0-0.5 0-1v-2.3h4.5v2.3q0 0.5 0 0.9 0 0.4 0 0.9 0 0.4 0.1 0.9 0 0.4 0 0.8 0.1 0.3 0.1 0.6 0.1 0.3 0.2 0.6 0.1 0.2 0.2 0.5 0.1 0.2 0.3 0.5l9.6 12.9zm-36 16.7v4.5h-26.9q-0.3 0-0.7-0.1-0.3 0-0.7-0.1-0.3-0.1-0.6-0.2-0.4-0.1-0.7-0.3-0.5-0.3-0.9-0.7-0.5-0.4-0.9-0.9-0.3-0.5-0.6-1-0.2-0.6-0.4-1.1 0-0.3-0.1-0.6 0-0.2-0.1-0.5 0-0.2 0-0.5 0-0.2 0-0.5v-35.6q0-0.3 0-0.5 0-0.3 0-0.5 0.1-0.3 0.1-0.5 0.1-0.3 0.1-0.6 0.2-0.5 0.4-1.1 0.3-0.5 0.6-1 0.4-0.5 0.9-0.9 0.4-0.4 0.9-0.7 0.3-0.2 0.7-0.3 0.3-0.1 0.6-0.2 0.4-0.1 0.7-0.1 0.4-0.1 0.7-0.1h26.9v4.5h-26.8q-0.1 0-0.2 0-0.1 0-0.1 0-0.1 0.1-0.2 0.1-0.1 0-0.1 0.1-0.1 0-0.2 0.1-0.1 0.1-0.2 0.3-0.1 0.1-0.2 0.2 0 0.2 0 0.3-0.1 0.1-0.1 0.2 0 0.1 0 0.2 0 0.2 0 0.3 0 0.1 0 0.2v15.6h20.8v4.4h-20.8v15.6q0 0.1 0 0.2 0 0.1 0 0.2 0 0.2 0 0.3 0 0.1 0.1 0.2 0 0.1 0 0.3 0.1 0.1 0.2 0.2 0.1 0.1 0.2 0.2 0.1 0.1 0.2 0.2 0 0.1 0.1 0.1 0.1 0 0.2 0 0 0.1 0.1 0.1 0.1 0 0.1 0zm-58.6-43.8v48.1h-4.5v-10.4l-29.2-32.6-0.3-0.3q-0.1-0.1-0.1-0.2-0.1 0-0.1-0.1-0.1 0-0.2-0.1 0 0-0.1-0.1-0.1 0-0.1 0-0.1 0-0.1 0-0.1 0-0.1 0-0.1 0-0.2 0 0 0.1 0 0.1 0 0.1 0 0.2 0 0.1 0 0.1 0 0.1 0 0.2v43.2h-4.5v-43.2c-0.1-0.9 0.1-1.8 0.5-2.6 0.4-0.8 1-1.5 1.7-1.9 0.8-0.5 1.7-0.7 2.5-0.7 0.9 0 1.8 0.2 2.6 0.7q0.2 0.1 0.3 0.3 0.2 0.1 0.4 0.2 0.2 0.2 0.3 0.3 0.2 0.2 0.4 0.4l0.4 0.4 25.9 29v-31zm-65.5 48.1h-4.5v-43.2q0-0.1 0-0.2 0 0 0-0.1 0-0.1 0-0.2 0-0.1-0.1-0.1 0 0-0.1 0 0 0-0.1 0 0 0-0.1 0 0 0-0.1 0 0 0 0 0.1-0.1 0-0.1 0 0 0.1 0 0.1-0.1 0.1-0.1 0.1l-13.8 31-0.1 0.2q-0.3 0.5-0.7 0.9-0.5 0.4-1 0.7-0.5 0.3-1.1 0.4-0.5 0.1-1.1 0.1-0.6 0-1.1-0.2-0.6-0.1-1.1-0.4-0.4-0.4-0.8-0.8-0.4-0.4-0.7-0.9l-13.8-31q0 0 0-0.1 0 0-0.1-0.1 0 0 0 0 0-0.1-0.1-0.1 0 0-0.1 0 0 0-0.1 0 0 0-0.1 0-0.1 0-0.1 0 0 0 0 0.1-0.1 0.1-0.1 0.2 0 0.1 0 0.1 0 0.1 0 0.2v43.2h-4.5v-43.2q0-0.5 0.1-1 0-0.5 0.2-0.9 0.1-0.5 0.4-0.9 0.2-0.5 0.5-0.9 0.4-0.3 0.8-0.6 0.4-0.3 0.8-0.5 0.5-0.2 0.9-0.2 0.5-0.1 1-0.1 0.3 0 0.7 0 0.3 0 0.7 0.1 0.3 0.1 0.6 0.2 0.3 0.2 0.6 0.3 0.4 0.2 0.6 0.5 0.3 0.2 0.6 0.5 0.2 0.3 0.4 0.6 0.2 0.3 0.4 0.6v0.1l13.6 30.4 13.6-30.5q0.3-0.6 0.7-1.2 0.5-0.5 1.1-0.9 0.6-0.4 1.3-0.6 0.7-0.2 1.5-0.1 0.4 0 0.9 0.1 0.5 0 0.9 0.2 0.5 0.2 0.9 0.5 0.4 0.3 0.7 0.6 0.3 0.4 0.6 0.9 0.2 0.4 0.4 0.9 0.1 0.4 0.2 0.9 0 0.5 0 1zm-71.7 0h-4.5v-10.5h-23.2v-4.5h23.2v-1.5q0-0.5 0-1 0-0.6-0.1-1.1 0-0.5-0.1-1-0.1-0.6-0.2-1.1-0.1-0.5-0.2-0.9-0.1-0.5-0.2-1-0.1-0.4-0.3-0.9-0.1-0.5-0.3-0.9l-6.2-14.7q-0.2-0.5-0.4-1-0.2-0.5-0.5-1-0.3-0.4-0.5-0.9-0.3-0.5-0.6-1-0.3-0.2-0.6-0.3-0.2-0.2-0.5-0.3-0.3-0.1-0.7-0.1-0.3-0.1-0.6 0h-6.9q-0.3-0.1-0.6 0-0.4 0-0.7 0.1-0.3 0.1-0.6 0.3-0.3 0.1-0.6 0.4-0.3 0.4-0.6 0.9-0.2 0.4-0.5 0.9-0.2 0.4-0.4 0.9-0.3 0.5-0.5 1l-5.7 14.8q-0.2 0.5-0.3 0.9-0.2 0.5-0.3 0.9-0.1 0.5-0.2 1-0.1 0.4-0.2 0.9-0.1 0.5-0.2 1.1-0.1 0.5-0.1 1-0.1 0.5-0.1 1.1 0 0.5 0 1v16.5h-4.5v-16.5q0-0.6 0-1.2 0.1-0.7 0.1-1.3 0.1-0.6 0.2-1.3 0-0.6 0.2-1.2 0.1-0.6 0.2-1.2 0.1-0.5 0.3-1.1 0.1-0.5 0.3-1.1 0.2-0.5 0.4-1.1l5.8-14.8q0.2-0.7 0.5-1.3 0.3-0.6 0.6-1.2 0.3-0.6 0.7-1.2 0.3-0.5 0.7-1.1 0.6-0.7 1.3-1.2 0.7-0.5 1.5-0.9 0.8-0.3 1.6-0.4 0.9-0.2 1.8-0.1h6.8q0.8-0.1 1.7 0.1 0.8 0.1 1.6 0.5 0.8 0.3 1.5 0.8 0.7 0.6 1.2 1.2 0.4 0.6 0.7 1.2 0.4 0.6 0.7 1.2 0.3 0.6 0.6 1.2 0.3 0.6 0.6 1.2l6.2 14.8q0.2 0.6 0.4 1.1 0.2 0.6 0.3 1.1 0.2 0.6 0.3 1.1 0.1 0.6 0.2 1.2 0.2 0.6 0.2 1.2 0.1 0.7 0.2 1.3 0 0.6 0.1 1.3 0 0.6 0 1.2z"/>
</svg>