<svg version="1.2" xmlns="http://www.w3.org/2000/svg" viewBox="0 0 184 43" width="184" height="43"><style>.a{fill:#fff}</style><path fill-rule="evenodd" class="a" d="m163.8 14.7l-5.1 7 5.2 7q0.1 0.2 0.3 0.5 0.1 0.3 0.2 0.6 0.1 0.2 0.2 0.5 0.1 0.3 0.1 0.6 0 0.3 0 0.5 0 0.3 0.1 0.5 0 0.3 0 0.6c0 0.1 0 1.6 0 1.7h-2.4c0-0.1 0-1.6 0-1.7q0-0.2 0-0.5 0-0.2 0-0.4 0-0.2 0-0.4-0.1-0.2-0.1-0.4 0-0.1-0.1-0.2 0-0.2-0.1-0.3 0-0.1-0.1-0.3l-5-6.7v-3.2l5-6.8q0.1-0.1 0.1-0.2 0.1-0.1 0.1-0.3 0.1-0.1 0.1-0.2 0-0.2 0.1-0.4 0-0.2 0-0.4 0-0.2 0-0.4 0-0.3 0-0.5c0-0.2 0-1.6 0-1.7h2.4c0 0.1 0 1.6 0 1.7q0 0.3 0 0.6-0.1 0.2-0.1 0.5 0 0.2 0 0.5 0 0.3-0.1 0.6-0.1 0.3-0.2 0.5-0.1 0.3-0.2 0.6-0.2 0.2-0.3 0.5zm-11.8 8.6l-5 6.7q-0.1 0.1-0.2 0.3 0 0.1-0.1 0.2 0 0.2-0.1 0.3 0 0.2 0 0.3 0 0.2 0 0.5-0.1 0.2-0.1 0.4 0 0.3 0 0.5c0 0.1 0 1.5 0 1.7h-2.3c0-0.2 0-1.6 0-1.8q0-0.3 0-0.5 0-0.3 0-0.5 0-0.3 0.1-0.6 0-0.2 0.1-0.5 0.1-0.3 0.2-0.6 0.1-0.3 0.2-0.5 0.1-0.3 0.3-0.5v-0.1l5.2-7-5.2-7q-0.2-0.2-0.3-0.4-0.1-0.3-0.2-0.6-0.1-0.3-0.2-0.6-0.1-0.2-0.1-0.6-0.1-0.2-0.1-0.5 0-0.2 0-0.5 0-0.3 0-0.5c0-0.2 0-1.6 0-1.7h2.3c0 0.1 0 1.5 0 1.6q0 0.2 0 0.5 0 0.2 0.1 0.5 0 0.2 0 0.4 0 0.1 0 0.3 0.1 0.2 0.1 0.3 0.1 0.1 0.1 0.3 0.1 0.1 0.2 0.2l5 6.7zm-18.7 8.7v2.4h-14q-0.2 0-0.4-0.1-0.1 0-0.3 0-0.2-0.1-0.3-0.2-0.2 0-0.4-0.1-0.3-0.2-0.5-0.4-0.2-0.2-0.4-0.4-0.2-0.3-0.4-0.6-0.1-0.3-0.2-0.5 0-0.2 0-0.3 0-0.1-0.1-0.3 0-0.1 0-0.3 0-0.1 0-0.2c0-0.1 0-18.7 0-18.8q0-0.1 0-0.2 0.1-0.2 0.1-0.3 0-0.2 0-0.3 0.1-0.3 0.2-0.6 0.2-0.2 0.4-0.5 0.2-0.3 0.4-0.5 0.2-0.2 0.5-0.3 0.2-0.1 0.4-0.2 0.1 0 0.3-0.1 0.2-0.1 0.3-0.1 0.2 0 0.4 0h14v2.3c-0.1 0-14 0-14.1 0q0 0 0 0-0.1 0.1-0.1 0.1-0.1 0-0.1 0 0 0-0.1 0.1 0 0-0.1 0.1 0 0.1-0.1 0.2 0 0.1 0 0.1 0 0.1 0 0.1 0 0.1 0 0.1 0 0.1 0 0.2c0 0 0 8.1 0 8.2h10.8v2.3h-10.8c0 0 0 8.1 0 8.2q0 0 0 0.1 0 0.1 0 0.1 0 0.1 0 0.1 0 0.1 0 0.2 0.1 0.1 0.1 0.1 0.1 0.1 0.1 0.1 0.1 0.1 0.1 0.1 0 0.1 0.1 0.1 0 0 0.1 0 0 0 0 0c0.1 0 14.1 0 14.1 0zm-30.5-22.7v25h-2.3v-5.5l-15.2-16.9-0.2-0.2q0 0 0-0.1-0.1 0-0.1 0 0 0-0.1-0.1 0 0 0 0-0.1 0-0.1 0 0 0 0 0-0.1 0-0.1 0 0 0-0.1 0 0 0 0 0 0 0.1 0 0.1 0 0.1 0 0.1c0 0 0 22.5 0 22.6h-2.3v-22.5c-0.1-0.5 0-0.9 0.3-1.4 0.2-0.4 0.5-0.7 0.8-0.9 0.4-0.3 0.9-0.4 1.3-0.4 0.5 0 1 0.1 1.4 0.4q0.1 0 0.1 0.1 0.1 0.1 0.2 0.1 0.2 0.1 0.2 0.2c0.1 0 0.4 0.3 0.4 0.4l13.5 15.1v-16.1zm-34.1 25h-2.3c0-0.1 0-22.6 0-22.6q0 0 0-0.1 0 0 0-0.1 0 0-0.1 0 0 0 0 0 0 0-0.1 0 0 0 0 0 0 0-0.1 0 0 0 0 0 0 0 0 0 0 0.1 0 0.1-0.1 0-0.1 0l-7.1 16.2-0.1 0.1q-0.1 0.2-0.4 0.4-0.2 0.2-0.5 0.4-0.2 0.1-0.5 0.2-0.3 0.1-0.6 0.1-0.3 0-0.6-0.2-0.3 0-0.6-0.2-0.2-0.2-0.4-0.4-0.2-0.2-0.3-0.4l-7.2-16.2q0 0 0 0 0 0-0.1-0.1 0 0 0 0 0 0-0.1 0 0 0 0 0 0 0-0.1 0 0 0 0 0 0 0 0 0-0.1 0.1-0.1 0.1 0 0.1 0 0.1c0 0 0 22.5 0 22.6h-2.3v-22.5q0-0.3 0-0.5 0-0.3 0.1-0.5 0.1-0.2 0.2-0.5 0.2-0.2 0.3-0.4 0.2-0.2 0.4-0.3 0.2-0.2 0.4-0.3 0.3-0.1 0.5-0.1 0.3-0.1 0.5-0.1 0.2 0 0.4 0 0.1 0 0.4 0.1 0.1 0.1 0.3 0.1 0.1 0.1 0.3 0.2 0.2 0.1 0.3 0.2 0.1 0.1 0.3 0.3 0.1 0.1 0.2 0.3 0.1 0.1 0.2 0.3v0.1l7.1 15.8 7.1-15.9q0.1-0.3 0.3-0.6 0.3-0.3 0.6-0.5 0.3-0.2 0.7-0.3 0.3-0.1 0.7-0.1 0.3 0 0.5 0.1 0.3 0 0.5 0.1 0.2 0.1 0.5 0.3 0.2 0.1 0.3 0.3 0.2 0.2 0.3 0.4 0.1 0.3 0.2 0.5 0.1 0.2 0.1 0.5c0 0.2 0 22.8 0 23zm-37.2 0h-2.4v-5.5h-12v-2.3h12c0-0.2 0-1.2 0-1.3q0-0.4 0-0.6 0-0.3-0.1-0.5 0-0.3-0.1-0.6 0-0.3-0.1-0.5 0-0.2-0.1-0.5 0-0.2-0.1-0.5-0.1-0.2-0.2-0.4l-3.2-7.7q-0.1-0.2-0.2-0.5-0.1-0.3-0.3-0.5-0.1-0.2-0.2-0.5-0.2-0.2-0.4-0.5-0.1-0.1-0.3-0.2-0.1-0.1-0.2-0.1-0.2-0.1-0.4-0.1-0.1 0-0.3 0h-3.6q-0.1 0-0.3 0-0.2 0-0.4 0.1-0.1 0-0.3 0.1-0.1 0.1-0.3 0.3-0.1 0.2-0.3 0.4-0.1 0.2-0.3 0.5-0.1 0.2-0.2 0.5-0.1 0.2-0.2 0.5l-3 7.7q-0.1 0.2-0.1 0.4-0.2 0.3-0.2 0.5-0.1 0.3-0.1 0.5-0.1 0.2-0.1 0.5-0.1 0.3-0.1 0.6-0.1 0.2-0.1 0.5 0 0.2 0 0.6 0 0.2 0 0.5v8.6h-2.4c0-0.3 0-9 0-9.2q0.1-0.4 0.1-0.7 0-0.3 0.1-0.7 0-0.3 0.1-0.6 0.1-0.3 0.1-0.6 0.1-0.3 0.2-0.6 0-0.3 0.1-0.6 0.1-0.3 0.2-0.6l3-7.7q0.1-0.3 0.3-0.6 0.2-0.3 0.3-0.7 0.2-0.3 0.4-0.6 0.1-0.2 0.3-0.5 0.4-0.4 0.7-0.7 0.4-0.2 0.8-0.4 0.4-0.2 0.8-0.2 0.5-0.2 1-0.1h3.5q0.4-0.1 0.9 0.1 0.4 0 0.8 0.2 0.4 0.2 0.8 0.4 0.4 0.3 0.6 0.7 0.2 0.3 0.4 0.6 0.2 0.3 0.3 0.6 0.2 0.3 0.4 0.6 0.1 0.3 0.3 0.6l3.2 7.7q0.1 0.3 0.2 0.6 0.1 0.3 0.2 0.6 0.1 0.3 0.1 0.6 0.1 0.3 0.1 0.6 0.1 0.3 0.1 0.6 0.1 0.4 0.1 0.7 0 0.3 0.1 0.7 0 0.3 0 0.6z"/></svg>